<svg width="16" height="16" viewBox="0 0 16 16" fill="none" xmlns="http://www.w3.org/2000/svg">
<g clip-path="url(#clip0_1094_2483)">
<path d="M7.9987 1.3335C11.6787 1.3335 14.6654 4.32016 14.6654 8.00016C14.6654 11.6802 11.6787 14.6668 7.9987 14.6668C4.3187 14.6668 1.33203 11.6802 1.33203 8.00016C1.33203 4.32016 4.3187 1.3335 7.9987 1.3335ZM7.9987 2.66683C5.05203 2.66683 2.66536 5.0535 2.66536 8.00016C2.66536 10.9468 5.05203 13.3335 7.9987 13.3335C10.9454 13.3335 13.332 10.9468 13.332 8.00016C13.332 5.0535 10.9454 2.66683 7.9987 2.66683ZM7.9987 4.66683C9.21203 4.66683 10.274 5.3155 10.8574 6.2855L9.7147 6.9715C9.53487 6.67166 9.27959 6.4242 8.9743 6.25379C8.66901 6.08339 8.32438 5.99599 7.97478 6.00032C7.62517 6.00464 7.28281 6.10054 6.98183 6.27844C6.68085 6.45635 6.43177 6.71005 6.25941 7.01424C6.08706 7.31844 5.99746 7.6625 5.99955 8.01212C6.00164 8.36175 6.09535 8.70471 6.27133 9.00683C6.44731 9.30894 6.69941 9.55964 7.0025 9.73393C7.30559 9.90823 7.64907 10 7.9987 10.0002C8.34412 10.0004 8.68371 9.91109 8.98433 9.74097C9.28496 9.57085 9.53637 9.32573 9.71403 9.0295L10.8574 9.71483C10.4827 10.3406 9.91313 10.8261 9.23598 11.0971C8.55883 11.368 7.81151 11.4093 7.10863 11.2146C6.40575 11.02 5.78613 10.6002 5.34479 10.0195C4.90345 9.43888 4.66478 8.72949 4.66536 8.00016C4.66536 6.16016 6.1587 4.66683 7.9987 4.66683Z" fill="#31344B"/>
</g>
<defs>
<clipPath id="clip0_1094_2483">
<rect width="16" height="16" fill="white"/>
</clipPath>
</defs>
</svg>
